<svg width="18" height="18" viewBox="0 0 18 18" fill="none" xmlns="http://www.w3.org/2000/svg">
<path d="M11.7096 11.4999H12.2919L16.3853 15.6126L16.3861 15.6134C16.6008 15.8282 16.6008 16.1816 16.3861 16.3963C16.1714 16.6111 15.8179 16.6111 15.6032 16.3963L11.4996 12.2928V11.7099V11.5081L11.3596 11.3628L11.2783 11.2785L11.3626 11.3598L11.5078 11.4999H11.7096ZM11.05 10.4045L10.752 10.7522L10.4043 11.0503C9.11088 12.1589 7.34893 12.7309 5.47287 12.4169C2.91064 11.9836 0.859241 9.83923 0.546004 7.25962L0.545913 7.25889C0.0655937 3.35167 3.35143 0.0658379 7.25864 0.546158L7.25938 0.546247C9.83898 0.859485 11.9834 2.91089 12.4166 5.47311C12.7306 7.34918 12.1586 9.11112 11.05 10.4045ZM1.49965 6.49989C1.49965 9.26604 3.73351 11.4999 6.49965 11.4999C9.26579 11.4999 11.4996 9.26604 11.4996 6.49989C11.4996 3.73375 9.26579 1.49989 6.49965 1.49989C3.73351 1.49989 1.49965 3.73375 1.49965 6.49989Z" fill="#ffff" stroke="#ffff"/>
</svg>
